REM DIRINDEX 1\2,1\4,1\5,1\6,1\7,1\3\8,1\3\9,1\3\10
REM DIRNAME cjc113,folder01,folder02,folder03,folder04,folder05,folder06,folder07,folder08,folder09
TITLE ""
FILE "DB4500_5th_6C_51.mp3" MP3
  TRACK 01 AUDIO
    TITLE "0:"
    INDEX 01 00:00:00
  TRACK 02 AUDIO
    TITLE "8:cjc113_5339"
    INDEX 01 00:00:01
  TRACK 03 AUDIO
    TITLE "0:"
    INDEX 01 00:01:21
  TRACK 04 AUDIO
    TITLE "9:cjc113_5340"
    INDEX 01 00:01:34
  TRACK 05 AUDIO
    TITLE "0:"
    INDEX 01 00:02:63
  TRACK 06 AUDIO
    TITLE "10:cjc113_5341"
    INDEX 01 00:03:04
  TRACK 07 AUDIO
    TITLE "0:"
    INDEX 01 00:06:43
  TRACK 08 AUDIO
    TITLE "8:cjc113_5342"
    INDEX 01 00:07:09
  TRACK 09 AUDIO
    TITLE "0:"
    INDEX 01 00:08:28
  TRACK 10 AUDIO
    TITLE "9:cjc113_5343"
    INDEX 01 00:08:44
  TRACK 11 AUDIO
    TITLE "0:"
    INDEX 01 00:09:59
  TRACK 12 AUDIO
    TITLE "10:cjc113_5344"
    INDEX 01 00:09:73
  TRACK 13 AUDIO
    TITLE "0:"
    INDEX 01 00:13:18
  TRACK 14 AUDIO
    TITLE "8:cjc113_5345"
    INDEX 01 00:13:53
  TRACK 15 AUDIO
    TITLE "0:"
    INDEX 01 00:15:17
  TRACK 16 AUDIO
    TITLE "9:cjc113_5346"
    INDEX 01 00:15:32
  TRACK 17 AUDIO
    TITLE "0:"
    INDEX 01 00:16:55
  TRACK 18 AUDIO
    TITLE "10:cjc113_5347"
    INDEX 01 00:16:69
  TRACK 19 AUDIO
    TITLE "0:"
    INDEX 01 00:20:08
  TRACK 20 AUDIO
    TITLE "8:cjc113_5348"
    INDEX 01 00:20:49
  TRACK 21 AUDIO
    TITLE "0:"
    INDEX 01 00:21:58
  TRACK 22 AUDIO
    TITLE "9:cjc113_5349"
    INDEX 01 00:22:01
  TRACK 23 AUDIO
    TITLE "0:"
    INDEX 01 00:23:42
  TRACK 24 AUDIO
    TITLE "10:cjc113_5350"
    INDEX 01 00:23:61
  TRACK 25 AUDIO
    TITLE "0:"
    INDEX 01 00:27:57
  TRACK 26 AUDIO
    TITLE "8:cjc113_5351"
    INDEX 01 00:28:25
  TRACK 27 AUDIO
    TITLE "0:"
    INDEX 01 00:29:36
  TRACK 28 AUDIO
    TITLE "9:cjc113_5352"
    INDEX 01 00:29:52
  TRACK 29 AUDIO
    TITLE "0:"
    INDEX 01 00:30:54
  TRACK 30 AUDIO
    TITLE "10:cjc113_5353"
    INDEX 01 00:30:69
  TRACK 31 AUDIO
    TITLE "0:"
    INDEX 01 00:34:53
  TRACK 32 AUDIO
    TITLE "8:cjc113_5354"
    INDEX 01 00:35:14
  TRACK 33 AUDIO
    TITLE "0:"
    INDEX 01 00:36:46
  TRACK 34 AUDIO
    TITLE "9:cjc113_5355"
    INDEX 01 00:36:62
  TRACK 35 AUDIO
    TITLE "0:"
    INDEX 01 00:38:37
  TRACK 36 AUDIO
    TITLE "10:cjc113_5356"
    INDEX 01 00:38:53
  TRACK 37 AUDIO
    TITLE "0:"
    INDEX 01 00:42:68
  TRACK 38 AUDIO
    TITLE "8:cjc113_5357"
    INDEX 01 00:43:29
  TRACK 39 AUDIO
    TITLE "0:"
    INDEX 01 00:44:60
  TRACK 40 AUDIO
    TITLE "9:cjc113_5358"
    INDEX 01 00:45:02
  TRACK 41 AUDIO
    TITLE "0:"
    INDEX 01 00:46:27
  TRACK 42 AUDIO
    TITLE "10:cjc113_5359"
    INDEX 01 00:46:43
  TRACK 43 AUDIO
    TITLE "0:"
    INDEX 01 00:51:03
  TRACK 44 AUDIO
    TITLE "8:cjc113_5360"
    INDEX 01 00:51:46
  TRACK 45 AUDIO
    TITLE "0:"
    INDEX 01 00:52:63
  TRACK 46 AUDIO
    TITLE "9:cjc113_5361"
    INDEX 01 00:53:04
  TRACK 47 AUDIO
    TITLE "0:"
    INDEX 01 00:54:48
  TRACK 48 AUDIO
    TITLE "10:cjc113_5362"
    INDEX 01 00:54:68
  TRACK 49 AUDIO
    TITLE "0:"
    INDEX 01 00:58:36
  TRACK 50 AUDIO
    TITLE "8:cjc113_5363"
    INDEX 01 00:58:73
  TRACK 51 AUDIO
    TITLE "0:"
    INDEX 01 01:00:08
  TRACK 52 AUDIO
    TITLE "9:cjc113_5364"
    INDEX 01 01:00:27
  TRACK 53 AUDIO
    TITLE "0:"
    INDEX 01 01:02:08
  TRACK 54 AUDIO
    TITLE "10:cjc113_5365"
    INDEX 01 01:02:26
  TRACK 55 AUDIO
    TITLE "0:"
    INDEX 01 01:06:20
  TRACK 56 AUDIO
    TITLE "8:cjc113_5366"
    INDEX 01 01:06:63
  TRACK 57 AUDIO
    TITLE "0:"
    INDEX 01 01:08:01
  TRACK 58 AUDIO
    TITLE "9:cjc113_5367"
    INDEX 01 01:08:17
  TRACK 59 AUDIO
    TITLE "0:"
    INDEX 01 01:09:42
  TRACK 60 AUDIO
    TITLE "10:cjc113_5368"
    INDEX 01 01:09:56
  TRACK 61 AUDIO
    TITLE "0:"
    INDEX 01 01:12:30
  TRACK 62 AUDIO
    TITLE "8:cjc113_5369"
    INDEX 01 01:12:71
  TRACK 63 AUDIO
    TITLE "0:"
    INDEX 01 01:14:06
  TRACK 64 AUDIO
    TITLE "9:cjc113_5370"
    INDEX 01 01:14:23
  TRACK 65 AUDIO
    TITLE "0:"
    INDEX 01 01:15:74
  TRACK 66 AUDIO
    TITLE "10:cjc113_5371"
    INDEX 01 01:16:18
  TRACK 67 AUDIO
    TITLE "0:"
    INDEX 01 01:19:15
  TRACK 68 AUDIO
    TITLE "8:cjc113_5372"
    INDEX 01 01:19:56
  TRACK 69 AUDIO
    TITLE "0:"
    INDEX 01 01:21:06
  TRACK 70 AUDIO
    TITLE "9:cjc113_5373"
    INDEX 01 01:21:18
  TRACK 71 AUDIO
    TITLE "0:"
    INDEX 01 01:22:35
  TRACK 72 AUDIO
    TITLE "10:cjc113_5374"
    INDEX 01 01:22:48
  TRACK 73 AUDIO
    TITLE "0:"
    INDEX 01 01:25:45
  TRACK 74 AUDIO
    TITLE "8:cjc113_5375"
    INDEX 01 01:26:07
  TRACK 75 AUDIO
    TITLE "0:"
    INDEX 01 01:27:48
  TRACK 76 AUDIO
    TITLE "9:cjc113_5376"
    INDEX 01 01:27:63
  TRACK 77 AUDIO
    TITLE "0:"
    INDEX 01 01:29:15
  TRACK 78 AUDIO
    TITLE "10:cjc113_5377"
    INDEX 01 01:29:31
  TRACK 79 AUDIO
    TITLE "0:"
    INDEX 01 01:33:09
  TRACK 80 AUDIO
    TITLE "8:cjc113_5378"
    INDEX 01 01:33:48
  TRACK 81 AUDIO
    TITLE "0:"
    INDEX 01 01:34:69
  TRACK 82 AUDIO
    TITLE "9:cjc113_5379"
    INDEX 01 01:35:12
  TRACK 83 AUDIO
    TITLE "0:"
    INDEX 01 01:36:35
  TRACK 84 AUDIO
    TITLE "10:cjc113_5380"
    INDEX 01 01:36:52
  TRACK 85 AUDIO
    TITLE "0:"
    INDEX 01 01:40:05
  TRACK 86 AUDIO
    TITLE "8:cjc113_5381"
    INDEX 01 01:40:44
  TRACK 87 AUDIO
    TITLE "0:"
    INDEX 01 01:41:50
  TRACK 88 AUDIO
    TITLE "9:cjc113_5382"
    INDEX 01 01:41:65
  TRACK 89 AUDIO
    TITLE "0:"
    INDEX 01 01:43:00
  TRACK 90 AUDIO
    TITLE "10:cjc113_5383"
    INDEX 01 01:43:19
  TRACK 91 AUDIO
    TITLE "0:"
    INDEX 01 01:46:12
  TRACK 92 AUDIO
    TITLE "8:cjc113_5384"
    INDEX 01 01:46:45
  TRACK 93 AUDIO
    TITLE "0:"
    INDEX 01 01:47:66
  TRACK 94 AUDIO
    TITLE "9:cjc113_5385"
    INDEX 01 01:48:07
  TRACK 95 AUDIO
    TITLE "0:"
    INDEX 01 01:49:18
  TRACK 96 AUDIO
    TITLE "10:cjc113_5386"
    INDEX 01 01:49:33
  TRACK 97 AUDIO
    TITLE "0:"
    INDEX 01 01:53:29
